{
	"patcher" : 	{
		"fileversion" : 1,
		"rect" : [ 152.0, 91.0, 991.0, 728.0 ],
		"bglocked" : 0,
		"defrect" : [ 152.0, 91.0, 991.0, 728.0 ],
		"openrect" : [ 0.0, 0.0, 0.0, 0.0 ],
		"openinpresentation" : 0,
		"default_fontsize" : 12.0,
		"default_fontface" : 0,
		"default_fontname" : "Arial",
		"gridonopen" : 0,
		"gridsize" : [ 15.0, 15.0 ],
		"gridsnaponopen" : 0,
		"toolbarvisible" : 1,
		"boxanimatetime" : 200,
		"imprint" : 0,
		"enablehscroll" : 1,
		"enablevscroll" : 1,
		"devicewidth" : 0.0,
		"boxes" : [ 			{
				"box" : 				{
					"maxclass" : "message",
					"text" : "0. 0. 0. 0. 0. 0. 0.",
					"linecount" : 3,
					"patching_rect" : [ 262.75, 600.0, 50.0, 46.0 ],
					"numinlets" : 2,
					"id" : "obj-64",
					"fontname" : "Arial",
					"numoutlets" : 1,
					"outlettype" : [ "" ],
					"fontsize" : 12.0
				}

			}
, 			{
				"box" : 				{
					"maxclass" : "message",
					"text" : "0.",
					"patching_rect" : [ 251.25, 567.0, 50.0, 18.0 ],
					"numinlets" : 2,
					"id" : "obj-65",
					"fontname" : "Arial",
					"numoutlets" : 1,
					"outlettype" : [ "" ],
					"fontsize" : 12.0
				}

			}
, 			{
				"box" : 				{
					"maxclass" : "message",
					"text" : "0.0125",
					"patching_rect" : [ 237.75, 540.0, 50.0, 18.0 ],
					"numinlets" : 2,
					"id" : "obj-66",
					"fontname" : "Arial",
					"numoutlets" : 1,
					"outlettype" : [ "" ],
					"fontsize" : 12.0
				}

			}
, 			{
				"box" : 				{
					"maxclass" : "message",
					"text" : "0.00625",
					"linecount" : 2,
					"patching_rect" : [ 224.25, 510.0, 50.0, 32.0 ],
					"numinlets" : 2,
					"id" : "obj-67",
					"fontname" : "Arial",
					"numoutlets" : 1,
					"outlettype" : [ "" ],
					"fontsize" : 12.0
				}

			}
, 			{
				"box" : 				{
					"maxclass" : "message",
					"text" : "0.060417",
					"linecount" : 2,
					"patching_rect" : [ 206.75, 481.0, 50.0, 32.0 ],
					"numinlets" : 2,
					"id" : "obj-68",
					"fontname" : "Arial",
					"numoutlets" : 1,
					"outlettype" : [ "" ],
					"fontsize" : 12.0
				}

			}
, 			{
				"box" : 				{
					"maxclass" : "message",
					"text" : "0.06875",
					"linecount" : 2,
					"patching_rect" : [ 195.25, 454.0, 50.0, 32.0 ],
					"numinlets" : 2,
					"id" : "obj-69",
					"fontname" : "Arial",
					"numoutlets" : 1,
					"outlettype" : [ "" ],
					"fontsize" : 12.0
				}

			}
, 			{
				"box" : 				{
					"maxclass" : "message",
					"text" : "0.",
					"patching_rect" : [ 183.75, 421.0, 50.0, 18.0 ],
					"numinlets" : 2,
					"id" : "obj-70",
					"fontname" : "Arial",
					"numoutlets" : 1,
					"outlettype" : [ "" ],
					"fontsize" : 12.0
				}

			}
, 			{
				"box" : 				{
					"maxclass" : "message",
					"text" : "0.261133",
					"linecount" : 2,
					"patching_rect" : [ 170.25, 394.0, 50.0, 32.0 ],
					"numinlets" : 2,
					"id" : "obj-71",
					"fontname" : "Arial",
					"numoutlets" : 1,
					"outlettype" : [ "" ],
					"fontsize" : 12.0
				}

			}
, 			{
				"box" : 				{
					"maxclass" : "message",
					"text" : "0.773277",
					"linecount" : 2,
					"patching_rect" : [ 156.75, 364.0, 50.0, 32.0 ],
					"numinlets" : 2,
					"id" : "obj-72",
					"fontname" : "Arial",
					"numoutlets" : 1,
					"outlettype" : [ "" ],
					"fontsize" : 12.0
				}

			}
, 			{
				"box" : 				{
					"maxclass" : "message",
					"text" : "0.066667",
					"linecount" : 2,
					"patching_rect" : [ 143.25, 334.0, 50.0, 32.0 ],
					"numinlets" : 2,
					"id" : "obj-73",
					"fontname" : "Arial",
					"numoutlets" : 1,
					"outlettype" : [ "" ],
					"fontsize" : 12.0
				}

			}
, 			{
				"box" : 				{
					"maxclass" : "message",
					"text" : "0.070312",
					"linecount" : 2,
					"patching_rect" : [ 127.75, 297.0, 50.0, 32.0 ],
					"numinlets" : 2,
					"id" : "obj-74",
					"fontname" : "Arial",
					"numoutlets" : 1,
					"outlettype" : [ "" ],
					"fontsize" : 12.0
				}

			}
, 			{
				"box" : 				{
					"maxclass" : "message",
					"text" : "3",
					"patching_rect" : [ 114.25, 270.0, 50.0, 18.0 ],
					"numinlets" : 2,
					"id" : "obj-75",
					"fontname" : "Arial",
					"numoutlets" : 1,
					"outlettype" : [ "" ],
					"fontsize" : 12.0
				}

			}
, 			{
				"box" : 				{
					"maxclass" : "message",
					"text" : "3",
					"patching_rect" : [ 100.75, 240.0, 50.0, 18.0 ],
					"numinlets" : 2,
					"id" : "obj-76",
					"fontname" : "Arial",
					"numoutlets" : 1,
					"outlettype" : [ "" ],
					"fontsize" : 12.0
				}

			}
, 			{
				"box" : 				{
					"maxclass" : "message",
					"text" : "213134",
					"patching_rect" : [ 87.25, 210.0, 50.0, 18.0 ],
					"numinlets" : 2,
					"id" : "obj-77",
					"fontname" : "Arial",
					"numoutlets" : 1,
					"outlettype" : [ "" ],
					"fontsize" : 12.0
				}

			}
, 			{
				"box" : 				{
					"maxclass" : "newobj",
					"text" : "slicelist 14 1",
					"patching_rect" : [ 118.25, 164.0, 194.5, 20.0 ],
					"numinlets" : 1,
					"id" : "obj-78",
					"fontname" : "Arial",
					"numoutlets" : 14,
					"outlettype" : [ "list", "list", "list", "list", "list", "list", "list", "list", "list", "list", "list", "list", "list", "list" ],
					"fontsize" : 12.0
				}

			}
, 			{
				"box" : 				{
					"maxclass" : "newobj",
					"text" : "route /au/personUpdated/",
					"patching_rect" : [ 118.25, 106.0, 147.0, 20.0 ],
					"numinlets" : 1,
					"id" : "obj-25",
					"fontname" : "Arial",
					"numoutlets" : 2,
					"outlettype" : [ "", "" ],
					"fontsize" : 12.0
				}

			}
, 			{
				"box" : 				{
					"maxclass" : "newobj",
					"text" : "udpreceive 12000",
					"patching_rect" : [ 40.0, 62.0, 106.0, 20.0 ],
					"numinlets" : 1,
					"id" : "obj-18",
					"fontname" : "Arial",
					"numoutlets" : 1,
					"outlettype" : [ "" ],
					"fontsize" : 12.0
				}

			}
, 			{
				"box" : 				{
					"maxclass" : "comment",
					"text" : "* Augmenta OSC Protocol :\n\n        /au/personWillLeave/ args0 arg1 ... argn\n        /au/personUpdated/   args0 arg1 ... argn\n        /au/personEntered/   args0 arg1 ... argn\n\n        where args are :\n\n\n        0: pid (int)                        // Personal ID ex : 42th person to enter stage has pid=42\n        1: oid (int)                        // Ordered ID ex : if 3 person on stage, 43th person has oid=2\n        2: age (int)                        // Time on stage (in frame number)\n        3: centroid.x (float)               // Position projected to the ground\n        4: centroid.y (float)               \n        5: velocity.x (float)               // Speed and direction vector\n        6: velocity.y (float)\n        7: depth (float)                    // Distance to sensor (in m)\n        8: boundingRect.x (float)           // Bounding box on the ground\n        9: boundingRect.y (float)\n        10: boundingRect.width (float)\n        11: boundingRect.height (float)\n        12: highest.x (float)               // Highest point placement\n        13: highest.y (float)\n        14: highest.z (float)               // Height\n\n        /au/scene/   args0 arg1 ... argn\n\n        0: currentTime (int)                // Time (in frame number)\n        1: percentCovered (float)           // Percent covered\n        2: numPeople (int)                  // Number of person\n        3: averageMotion.x (float)          // Average motion\n        4: averageMotion.y (float)\n        5: scene.width (int)                // Scene size\n        6: scene.height (int)\n",
					"linecount" : 34,
					"patching_rect" : [ 347.0, 86.0, 524.0, 476.0 ],
					"numinlets" : 1,
					"id" : "obj-15",
					"fontname" : "Arial",
					"numoutlets" : 0,
					"fontsize" : 12.0
				}

			}
, 			{
				"box" : 				{
					"maxclass" : "comment",
					"text" : "OSC communication from :: Augmenta ::",
					"patching_rect" : [ 190.0, 4.0, 338.0, 25.0 ],
					"numinlets" : 1,
					"id" : "obj-16",
					"fontname" : "Arial",
					"numoutlets" : 0,
					"fontsize" : 16.0
				}

			}
, 			{
				"box" : 				{
					"maxclass" : "newobj",
					"text" : "print",
					"patching_rect" : [ 40.0, 113.0, 34.0, 20.0 ],
					"numinlets" : 1,
					"id" : "obj-2",
					"fontname" : "Arial",
					"numoutlets" : 0,
					"fontsize" : 12.0
				}

			}
 ],
		"lines" : [ 			{
				"patchline" : 				{
					"source" : [ "obj-18", 0 ],
					"destination" : [ "obj-25", 0 ],
					"hidden" : 0,
					"midpoints" : [ 49.5, 85.0, 127.75, 85.0 ]
				}

			}
, 			{
				"patchline" : 				{
					"source" : [ "obj-25", 0 ],
					"destination" : [ "obj-78", 0 ],
					"hidden" : 0,
					"midpoints" : [  ]
				}

			}
, 			{
				"patchline" : 				{
					"source" : [ "obj-78", 0 ],
					"destination" : [ "obj-77", 1 ],
					"hidden" : 0,
					"midpoints" : [  ]
				}

			}
, 			{
				"patchline" : 				{
					"source" : [ "obj-78", 1 ],
					"destination" : [ "obj-76", 1 ],
					"hidden" : 0,
					"midpoints" : [  ]
				}

			}
, 			{
				"patchline" : 				{
					"source" : [ "obj-78", 2 ],
					"destination" : [ "obj-75", 1 ],
					"hidden" : 0,
					"midpoints" : [  ]
				}

			}
, 			{
				"patchline" : 				{
					"source" : [ "obj-78", 3 ],
					"destination" : [ "obj-74", 1 ],
					"hidden" : 0,
					"midpoints" : [  ]
				}

			}
, 			{
				"patchline" : 				{
					"source" : [ "obj-78", 4 ],
					"destination" : [ "obj-73", 1 ],
					"hidden" : 0,
					"midpoints" : [  ]
				}

			}
, 			{
				"patchline" : 				{
					"source" : [ "obj-78", 5 ],
					"destination" : [ "obj-72", 1 ],
					"hidden" : 0,
					"midpoints" : [  ]
				}

			}
, 			{
				"patchline" : 				{
					"source" : [ "obj-78", 6 ],
					"destination" : [ "obj-71", 1 ],
					"hidden" : 0,
					"midpoints" : [  ]
				}

			}
, 			{
				"patchline" : 				{
					"source" : [ "obj-78", 7 ],
					"destination" : [ "obj-70", 1 ],
					"hidden" : 0,
					"midpoints" : [  ]
				}

			}
, 			{
				"patchline" : 				{
					"source" : [ "obj-78", 8 ],
					"destination" : [ "obj-69", 1 ],
					"hidden" : 0,
					"midpoints" : [  ]
				}

			}
, 			{
				"patchline" : 				{
					"source" : [ "obj-78", 9 ],
					"destination" : [ "obj-68", 1 ],
					"hidden" : 0,
					"midpoints" : [  ]
				}

			}
, 			{
				"patchline" : 				{
					"source" : [ "obj-78", 10 ],
					"destination" : [ "obj-67", 1 ],
					"hidden" : 0,
					"midpoints" : [  ]
				}

			}
, 			{
				"patchline" : 				{
					"source" : [ "obj-78", 11 ],
					"destination" : [ "obj-66", 1 ],
					"hidden" : 0,
					"midpoints" : [  ]
				}

			}
, 			{
				"patchline" : 				{
					"source" : [ "obj-78", 12 ],
					"destination" : [ "obj-65", 1 ],
					"hidden" : 0,
					"midpoints" : [  ]
				}

			}
, 			{
				"patchline" : 				{
					"source" : [ "obj-78", 13 ],
					"destination" : [ "obj-64", 1 ],
					"hidden" : 0,
					"midpoints" : [  ]
				}

			}
, 			{
				"patchline" : 				{
					"source" : [ "obj-18", 0 ],
					"destination" : [ "obj-2", 0 ],
					"hidden" : 0,
					"midpoints" : [  ]
				}

			}
 ]
	}

}
