{
	"patcher" : 	{
		"fileversion" : 1,
		"rect" : [ 5.0, 51.0, 960.0, 720.0 ],
		"bgcolor" : [ 0.865, 0.88, 0.9, 1.0 ],
		"bglocked" : 0,
		"defrect" : [ 5.0, 51.0, 960.0, 720.0 ],
		"openrect" : [ 5.0, 51.0, 960.0, 720.0 ],
		"openinpresentation" : 0,
		"default_fontsize" : 9.0,
		"default_fontface" : 0,
		"default_fontname" : "Verdana",
		"gridonopen" : 0,
		"gridsize" : [ 20.0, 20.0 ],
		"gridsnaponopen" : 0,
		"toolbarvisible" : 0,
		"boxanimatetime" : 200,
		"imprint" : 0,
		"boxes" : [ 			{
				"box" : 				{
					"maxclass" : "button",
					"id" : "obj-28",
					"numinlets" : 1,
					"patching_rect" : [ 578.0, 325.0, 20.0, 20.0 ],
					"numoutlets" : 1,
					"outlettype" : [ "bang" ]
				}

			}
, 			{
				"box" : 				{
					"maxclass" : "newobj",
					"text" : "p single_slice",
					"id" : "obj-2",
					"fontsize" : 10.0,
					"numinlets" : 0,
					"patching_rect" : [ 661.357117, 489.632782, 78.0, 19.0 ],
					"numoutlets" : 0,
					"fontname" : "Verdana",
					"patcher" : 					{
						"fileversion" : 1,
						"rect" : [ 496.0, 44.0, 342.0, 370.0 ],
						"bglocked" : 0,
						"defrect" : [ 496.0, 44.0, 342.0, 370.0 ],
						"openrect" : [ 0.0, 0.0, 0.0, 0.0 ],
						"openinpresentation" : 0,
						"default_fontsize" : 10.0,
						"default_fontface" : 0,
						"default_fontname" : "Verdana",
						"gridonopen" : 0,
						"gridsize" : [ 6.0, 6.0 ],
						"gridsnaponopen" : 0,
						"toolbarvisible" : 1,
						"boxanimatetime" : 200,
						"imprint" : 0,
						"boxes" : [ 							{
								"box" : 								{
									"maxclass" : "textbutton",
									"bgoveroncolor" : [ 0.694118, 0.694118, 0.694118, 1.0 ],
									"bordercolor" : [ 1.0, 1.0, 1.0, 1.0 ],
									"bgoncolor" : [ 0.694118, 0.694118, 0.694118, 1.0 ],
									"textoveroncolor" : [ 1.0, 1.0, 1.0, 1.0 ],
									"borderoncolor" : [ 1.0, 1.0, 1.0, 1.0 ],
									"id" : "obj-104",
									"fontsize" : 11.0,
									"border" : 0,
									"numinlets" : 1,
									"patching_rect" : [ 273.5, 322.5, 15.0, 15.0 ],
									"text" : "X",
									"bgcolor" : [ 0.827451, 0.827451, 0.827451, 1.0 ],
									"rounded" : 15.660002,
									"numoutlets" : 3,
									"textcolor" : [ 1.0, 1.0, 1.0, 1.0 ],
									"textovercolor" : [ 1.0, 1.0, 1.0, 1.0 ],
									"outlettype" : [ "", "", "int" ],
									"bgovercolor" : [ 0.827451, 0.827451, 0.827451, 1.0 ],
									"fontname" : "Verdana"
								}

							}
, 							{
								"box" : 								{
									"maxclass" : "message",
									"text" : "10 11 12 13",
									"id" : "obj-105",
									"fontsize" : 10.0,
									"numinlets" : 2,
									"patching_rect" : [ 63.5, 322.5, 226.0, 17.0 ],
									"bgcolor2" : [ 1.0, 1.0, 1.0, 1.0 ],
									"bgcolor" : [ 1.0, 1.0, 1.0, 1.0 ],
									"numoutlets" : 1,
									"outlettype" : [ "" ],
									"fontname" : "Verdana"
								}

							}
, 							{
								"box" : 								{
									"maxclass" : "message",
									"text" : "set",
									"hidden" : 1,
									"id" : "obj-106",
									"fontsize" : 10.0,
									"numinlets" : 2,
									"patching_rect" : [ 230.5, 322.5, 32.5, 17.0 ],
									"bgcolor2" : [ 1.0, 1.0, 1.0, 1.0 ],
									"bgcolor" : [ 1.0, 1.0, 1.0, 1.0 ],
									"numoutlets" : 1,
									"outlettype" : [ "" ],
									"fontname" : "Verdana"
								}

							}
, 							{
								"box" : 								{
									"maxclass" : "comment",
									"text" : "arg3 (optional): initial slice position (zero based)",
									"linecount" : 2,
									"id" : "obj-1",
									"fontsize" : 10.0,
									"numinlets" : 1,
									"patching_rect" : [ 162.714844, 64.825439, 150.0, 31.0 ],
									"numoutlets" : 0,
									"fontname" : "Verdana"
								}

							}
, 							{
								"box" : 								{
									"maxclass" : "comment",
									"text" : "arg1 <= 2 :: mode 1",
									"id" : "obj-2",
									"fontsize" : 10.0,
									"numinlets" : 1,
									"patching_rect" : [ 162.714844, 31.0, 117.0, 19.0 ],
									"numoutlets" : 0,
									"fontname" : "Verdana"
								}

							}
, 							{
								"box" : 								{
									"maxclass" : "button",
									"id" : "obj-3",
									"numinlets" : 1,
									"patching_rect" : [ 37.1875, 316.384247, 20.0, 20.0 ],
									"numoutlets" : 1,
									"outlettype" : [ "bang" ]
								}

							}
, 							{
								"box" : 								{
									"maxclass" : "newobj",
									"text" : "active",
									"id" : "obj-4",
									"fontsize" : 10.0,
									"numinlets" : 0,
									"patching_rect" : [ 58.136719, 71.089409, 40.0, 19.0 ],
									"numoutlets" : 1,
									"outlettype" : [ "int" ],
									"fontname" : "Verdana"
								}

							}
, 							{
								"box" : 								{
									"maxclass" : "number",
									"id" : "obj-5",
									"fontsize" : 10.0,
									"htextcolor" : [ 0.870588, 0.870588, 0.870588, 1.0 ],
									"numinlets" : 1,
									"patching_rect" : [ 144.527344, 225.183075, 37.0, 19.0 ],
									"triscale" : 0.9,
									"numoutlets" : 2,
									"outlettype" : [ "int", "bang" ],
									"fontname" : "Verdana"
								}

							}
, 							{
								"box" : 								{
									"maxclass" : "message",
									"text" : "pos $1",
									"id" : "obj-6",
									"fontsize" : 10.0,
									"numinlets" : 2,
									"patching_rect" : [ 144.527344, 247.733368, 44.0, 17.0 ],
									"numoutlets" : 1,
									"outlettype" : [ "" ],
									"fontname" : "Verdana"
								}

							}
, 							{
								"box" : 								{
									"maxclass" : "toggle",
									"id" : "obj-7",
									"numinlets" : 1,
									"patching_rect" : [ 191.132812, 225.183075, 20.0, 20.0 ],
									"numoutlets" : 1,
									"outlettype" : [ "int" ]
								}

							}
, 							{
								"box" : 								{
									"maxclass" : "message",
									"text" : "mode $1",
									"id" : "obj-8",
									"fontsize" : 10.0,
									"numinlets" : 2,
									"patching_rect" : [ 191.132812, 247.733368, 55.0, 17.0 ],
									"numoutlets" : 1,
									"outlettype" : [ "" ],
									"fontname" : "Verdana"
								}

							}
, 							{
								"box" : 								{
									"maxclass" : "message",
									"text" : "0 1 2 3 4 5 6 7 8 9 10 11 12 13 14 15 16 17 18 19 20 21 22 23 24 25 26 27 28 29 30 31",
									"linecount" : 2,
									"id" : "obj-9",
									"fontsize" : 10.0,
									"numinlets" : 2,
									"patching_rect" : [ 58.136719, 142.498672, 255.0, 29.0 ],
									"numoutlets" : 1,
									"outlettype" : [ "" ],
									"fontname" : "Verdana"
								}

							}
, 							{
								"box" : 								{
									"maxclass" : "number",
									"id" : "obj-10",
									"fontsize" : 10.0,
									"htextcolor" : [ 0.870588, 0.870588, 0.870588, 1.0 ],
									"numinlets" : 1,
									"patching_rect" : [ 94.511719, 225.183075, 37.0, 19.0 ],
									"triscale" : 0.9,
									"numoutlets" : 2,
									"outlettype" : [ "int", "bang" ],
									"fontname" : "Verdana"
								}

							}
, 							{
								"box" : 								{
									"maxclass" : "message",
									"text" : "size $1",
									"id" : "obj-11",
									"fontsize" : 10.0,
									"numinlets" : 2,
									"patching_rect" : [ 94.511719, 247.733368, 46.0, 17.0 ],
									"numoutlets" : 1,
									"outlettype" : [ "" ],
									"fontname" : "Verdana"
								}

							}
, 							{
								"box" : 								{
									"maxclass" : "toggle",
									"id" : "obj-12",
									"numinlets" : 1,
									"patching_rect" : [ 58.136719, 94.892502, 20.0, 20.0 ],
									"numoutlets" : 1,
									"outlettype" : [ "int" ]
								}

							}
, 							{
								"box" : 								{
									"maxclass" : "newobj",
									"text" : "metro 500",
									"id" : "obj-13",
									"fontsize" : 10.0,
									"numinlets" : 2,
									"patching_rect" : [ 58.136719, 116.189995, 63.0, 19.0 ],
									"numoutlets" : 1,
									"outlettype" : [ "bang" ],
									"fontname" : "Verdana"
								}

							}
, 							{
								"box" : 								{
									"maxclass" : "newobj",
									"text" : "slicelist 1 8 16",
									"id" : "obj-16",
									"fontsize" : 10.0,
									"numinlets" : 1,
									"patching_rect" : [ 58.136719, 287.822754, 83.0, 19.0 ],
									"numoutlets" : 1,
									"outlettype" : [ "list" ],
									"fontname" : "Verdana"
								}

							}
, 							{
								"box" : 								{
									"maxclass" : "comment",
									"text" : "single slice mode",
									"id" : "obj-17",
									"fontsize" : 10.0,
									"numinlets" : 1,
									"patching_rect" : [ 57.0, 31.0, 97.0, 19.0 ],
									"numoutlets" : 0,
									"fontname" : "Verdana"
								}

							}
, 							{
								"box" : 								{
									"maxclass" : "comment",
									"text" : "arg2: slice size",
									"id" : "obj-18",
									"fontsize" : 10.0,
									"numinlets" : 1,
									"patching_rect" : [ 162.714844, 48.539116, 86.0, 19.0 ],
									"numoutlets" : 0,
									"fontname" : "Verdana"
								}

							}
 ],
						"lines" : [ 							{
								"patchline" : 								{
									"source" : [ "obj-7", 0 ],
									"destination" : [ "obj-8", 0 ],
									"hidden" : 0,
									"midpoints" : [  ]
								}

							}
, 							{
								"patchline" : 								{
									"source" : [ "obj-5", 0 ],
									"destination" : [ "obj-6", 0 ],
									"hidden" : 0,
									"midpoints" : [  ]
								}

							}
, 							{
								"patchline" : 								{
									"source" : [ "obj-10", 0 ],
									"destination" : [ "obj-11", 0 ],
									"hidden" : 0,
									"midpoints" : [  ]
								}

							}
, 							{
								"patchline" : 								{
									"source" : [ "obj-16", 0 ],
									"destination" : [ "obj-3", 0 ],
									"hidden" : 0,
									"midpoints" : [  ]
								}

							}
, 							{
								"patchline" : 								{
									"source" : [ "obj-9", 0 ],
									"destination" : [ "obj-16", 0 ],
									"hidden" : 0,
									"midpoints" : [  ]
								}

							}
, 							{
								"patchline" : 								{
									"source" : [ "obj-11", 0 ],
									"destination" : [ "obj-16", 0 ],
									"hidden" : 0,
									"midpoints" : [  ]
								}

							}
, 							{
								"patchline" : 								{
									"source" : [ "obj-6", 0 ],
									"destination" : [ "obj-16", 0 ],
									"hidden" : 0,
									"midpoints" : [  ]
								}

							}
, 							{
								"patchline" : 								{
									"source" : [ "obj-8", 0 ],
									"destination" : [ "obj-16", 0 ],
									"hidden" : 0,
									"midpoints" : [  ]
								}

							}
, 							{
								"patchline" : 								{
									"source" : [ "obj-13", 0 ],
									"destination" : [ "obj-9", 0 ],
									"hidden" : 0,
									"midpoints" : [  ]
								}

							}
, 							{
								"patchline" : 								{
									"source" : [ "obj-12", 0 ],
									"destination" : [ "obj-13", 0 ],
									"hidden" : 0,
									"midpoints" : [  ]
								}

							}
, 							{
								"patchline" : 								{
									"source" : [ "obj-4", 0 ],
									"destination" : [ "obj-12", 0 ],
									"hidden" : 0,
									"midpoints" : [  ]
								}

							}
, 							{
								"patchline" : 								{
									"source" : [ "obj-104", 0 ],
									"destination" : [ "obj-106", 0 ],
									"hidden" : 1,
									"midpoints" : [ 278.197998, 338.5, 289.5, 338.5, 289.5, 320.5, 240.0, 320.5 ]
								}

							}
, 							{
								"patchline" : 								{
									"source" : [ "obj-106", 0 ],
									"destination" : [ "obj-105", 0 ],
									"hidden" : 1,
									"midpoints" : [ 240.0, 340.5, 282.5, 340.5, 282.5, 340.5, 62.5, 340.5, 62.5, 321.5, 73.0, 321.5 ]
								}

							}
, 							{
								"patchline" : 								{
									"source" : [ "obj-16", 0 ],
									"destination" : [ "obj-105", 1 ],
									"hidden" : 0,
									"midpoints" : [ 67.636719, 310.0, 280.0, 310.0 ]
								}

							}
 ]
					}
,
					"saved_object_attributes" : 					{
						"default_fontsize" : 10.0,
						"fontface" : 0,
						"fontsize" : 10.0,
						"globalpatchername" : "",
						"default_fontface" : 0,
						"default_fontname" : "Verdana",
						"fontname" : "Verdana"
					}

				}

			}
, 			{
				"box" : 				{
					"maxclass" : "message",
					"text" : "apple banana cherry date elefant fig",
					"id" : "obj-4",
					"fontsize" : 10.0,
					"numinlets" : 2,
					"patching_rect" : [ 566.124451, 289.348724, 191.0, 17.0 ],
					"numoutlets" : 1,
					"outlettype" : [ "" ],
					"fontname" : "Verdana"
				}

			}
, 			{
				"box" : 				{
					"maxclass" : "button",
					"id" : "obj-5",
					"numinlets" : 1,
					"patching_rect" : [ 288.188934, 254.0, 15.0, 15.0 ],
					"numoutlets" : 1,
					"outlettype" : [ "bang" ]
				}

			}
, 			{
				"box" : 				{
					"maxclass" : "newobj",
					"text" : "t set",
					"id" : "obj-6",
					"fontsize" : 10.0,
					"numinlets" : 1,
					"patching_rect" : [ 542.739624, 327.429565, 33.0, 19.0 ],
					"numoutlets" : 1,
					"outlettype" : [ "set" ],
					"fontname" : "Verdana"
				}

			}
, 			{
				"box" : 				{
					"maxclass" : "message",
					"text" : "size $1",
					"id" : "obj-7",
					"fontsize" : 10.0,
					"numinlets" : 2,
					"patching_rect" : [ 230.0, 274.963043, 47.0, 17.0 ],
					"numoutlets" : 1,
					"outlettype" : [ "" ],
					"fontname" : "Verdana"
				}

			}
, 			{
				"box" : 				{
					"maxclass" : "message",
					"text" : "1 2 3 4 5 6 7 8 9 10 11 12 13 14 15 16 17 18 19 20 21 22 23 24 25 26 27 28 29 30 31",
					"linecount" : 2,
					"id" : "obj-10",
					"fontsize" : 10.0,
					"numinlets" : 2,
					"patching_rect" : [ 477.935486, 254.0, 238.0, 29.0 ],
					"numoutlets" : 1,
					"outlettype" : [ "" ],
					"fontname" : "Verdana"
				}

			}
, 			{
				"box" : 				{
					"maxclass" : "message",
					"id" : "obj-11",
					"fontsize" : 10.0,
					"numinlets" : 2,
					"patching_rect" : [ 479.20047, 384.279449, 159.0, 17.0 ],
					"numoutlets" : 1,
					"outlettype" : [ "" ],
					"fontname" : "Verdana"
				}

			}
, 			{
				"box" : 				{
					"maxclass" : "message",
					"id" : "obj-13",
					"fontsize" : 10.0,
					"numinlets" : 2,
					"patching_rect" : [ 515.884766, 361.969971, 158.0, 17.0 ],
					"numoutlets" : 1,
					"outlettype" : [ "" ],
					"fontname" : "Verdana"
				}

			}
, 			{
				"box" : 				{
					"maxclass" : "message",
					"text" : "1 2 3 4 5 6 7 8 9 10 11 12 13 14",
					"linecount" : 2,
					"id" : "obj-15",
					"fontsize" : 10.0,
					"numinlets" : 2,
					"patching_rect" : [ 364.087555, 254.0, 97.0, 29.0 ],
					"numoutlets" : 1,
					"outlettype" : [ "" ],
					"fontname" : "Verdana"
				}

			}
, 			{
				"box" : 				{
					"maxclass" : "message",
					"id" : "obj-16",
					"fontsize" : 10.0,
					"numinlets" : 2,
					"patching_rect" : [ 332.463135, 474.632782, 156.0, 17.0 ],
					"numoutlets" : 1,
					"outlettype" : [ "" ],
					"fontname" : "Verdana"
				}

			}
, 			{
				"box" : 				{
					"maxclass" : "message",
					"id" : "obj-19",
					"fontsize" : 10.0,
					"numinlets" : 2,
					"patching_rect" : [ 369.147461, 452.323334, 160.0, 17.0 ],
					"numoutlets" : 1,
					"outlettype" : [ "" ],
					"fontname" : "Verdana"
				}

			}
, 			{
				"box" : 				{
					"maxclass" : "message",
					"id" : "obj-21",
					"fontsize" : 10.0,
					"numinlets" : 2,
					"patching_rect" : [ 405.831787, 430.013855, 159.0, 17.0 ],
					"numoutlets" : 1,
					"outlettype" : [ "" ],
					"fontname" : "Verdana"
				}

			}
, 			{
				"box" : 				{
					"maxclass" : "message",
					"id" : "obj-23",
					"fontsize" : 10.0,
					"numinlets" : 2,
					"patching_rect" : [ 442.516144, 407.704376, 159.0, 17.0 ],
					"numoutlets" : 1,
					"outlettype" : [ "" ],
					"fontname" : "Verdana"
				}

			}
, 			{
				"box" : 				{
					"maxclass" : "message",
					"text" : "1 2 3 4 5 6 7 8",
					"linecount" : 2,
					"id" : "obj-25",
					"fontsize" : 10.0,
					"numinlets" : 2,
					"patching_rect" : [ 310.958527, 254.0, 48.0, 29.0 ],
					"numoutlets" : 1,
					"outlettype" : [ "" ],
					"fontname" : "Verdana"
				}

			}
, 			{
				"box" : 				{
					"maxclass" : "newobj",
					"text" : "slicelist 6 5",
					"id" : "obj-26",
					"fontsize" : 10.0,
					"numinlets" : 1,
					"patching_rect" : [ 310.958527, 319.58197, 88.0, 19.0 ],
					"numoutlets" : 6,
					"outlettype" : [ "list", "list", "list", "list", "list", "list" ],
					"fontname" : "Verdana"
				}

			}
, 			{
				"box" : 				{
					"maxclass" : "number",
					"id" : "obj-33",
					"fontsize" : 10.0,
					"htextcolor" : [ 0.870588, 0.870588, 0.870588, 1.0 ],
					"numinlets" : 1,
					"patching_rect" : [ 230.0, 254.0, 37.0, 19.0 ],
					"bgcolor" : [ 0.866667, 0.866667, 0.866667, 1.0 ],
					"triscale" : 0.9,
					"numoutlets" : 2,
					"outlettype" : [ "int", "bang" ],
					"fontname" : "Verdana"
				}

			}
, 			{
				"box" : 				{
					"maxclass" : "textbutton",
					"bgoveroncolor" : [ 0.501961, 0.501961, 0.501961, 0.0 ],
					"bordercolor" : [ 0.6, 0.6, 0.6, 0.0 ],
					"outputmode" : 0,
					"id" : "obj-3",
					"fontsize" : 9.0,
					"border" : 0,
					"numinlets" : 1,
					"patching_rect" : [ 828.0, 683.0, 114.0, 17.0 ],
					"text" : "http://www.jasch.ch",
					"bgcolor" : [ 0.74902, 0.74902, 0.74902, 0.0 ],
					"rounded" : 0.0,
					"numoutlets" : 3,
					"textcolor" : [ 0.121569, 0.498039, 0.74902, 1.0 ],
					"textovercolor" : [ 0.121569, 0.498039, 0.74902, 1.0 ],
					"outlettype" : [ "", "", "int" ],
					"bgovercolor" : [ 0.698039, 0.698039, 0.698039, 0.0 ],
					"fontname" : "Verdana"
				}

			}
, 			{
				"box" : 				{
					"maxclass" : "message",
					"text" : ";\rmax launchbrowser http://www.jasch.ch",
					"linecount" : 2,
					"hidden" : 1,
					"id" : "obj-32",
					"fontsize" : 10.0,
					"numinlets" : 2,
					"patching_rect" : [ 614.0, 683.0, 214.0, 29.0 ],
					"bgcolor2" : [ 1.0, 1.0, 1.0, 1.0 ],
					"bgcolor" : [ 1.0, 1.0, 1.0, 1.0 ],
					"numoutlets" : 1,
					"textcolor" : [ 0.0, 0.0, 0.0, 0.101961 ],
					"gradient" : 1,
					"outlettype" : [ "" ],
					"fontname" : "Verdana"
				}

			}
, 			{
				"box" : 				{
					"maxclass" : "comment",
					"text" : "slice list into sublists - arguments (mandatory): outlets, slicesize",
					"frgb" : [ 1.0, 1.0, 1.0, 1.0 ],
					"id" : "obj-36",
					"fontsize" : 10.0,
					"numinlets" : 1,
					"patching_rect" : [ 106.0, 27.0, 337.0, 19.0 ],
					"numoutlets" : 0,
					"textcolor" : [ 1.0, 1.0, 1.0, 1.0 ],
					"fontname" : "Verdana"
				}

			}
, 			{
				"box" : 				{
					"maxclass" : "comment",
					"text" : "slicelist",
					"frgb" : [ 1.0, 1.0, 1.0, 1.0 ],
					"id" : "obj-8",
					"fontsize" : 20.0,
					"numinlets" : 1,
					"patching_rect" : [ 19.0, 16.0, 84.0, 31.0 ],
					"numoutlets" : 0,
					"textcolor" : [ 1.0, 1.0, 1.0, 1.0 ],
					"fontname" : "Verdana"
				}

			}
, 			{
				"box" : 				{
					"maxclass" : "message",
					"text" : "window size 5 51 965 771, window constrain 960 720 960 720, window exec",
					"hidden" : 1,
					"id" : "obj-55",
					"fontsize" : 9.0,
					"numinlets" : 2,
					"patching_rect" : [ 14.0, 682.0, 360.0, 15.0 ],
					"bgcolor2" : [ 1.0, 1.0, 1.0, 1.0 ],
					"bgcolor" : [ 1.0, 1.0, 1.0, 1.0 ],
					"numoutlets" : 1,
					"textcolor" : [ 0.0, 0.0, 0.0, 0.129412 ],
					"gradient" : 1,
					"outlettype" : [ "" ],
					"fontname" : "Verdana"
				}

			}
, 			{
				"box" : 				{
					"maxclass" : "newobj",
					"text" : "thispatcher",
					"hidden" : 1,
					"id" : "obj-1",
					"fontsize" : 9.0,
					"numinlets" : 1,
					"patching_rect" : [ 13.0, 697.0, 62.0, 17.0 ],
					"bgcolor" : [ 1.0, 1.0, 1.0, 0.0 ],
					"numoutlets" : 2,
					"textcolor" : [ 0.0, 0.0, 0.0, 0.243137 ],
					"color" : [ 0.698039, 0.698039, 0.698039, 0.0 ],
					"outlettype" : [ "", "" ],
					"fontname" : "Verdana",
					"save" : [ "#N", "thispatcher", ";", "#Q", "end", ";" ]
				}

			}
, 			{
				"box" : 				{
					"maxclass" : "fpic",
					"embed" : 1,
					"id" : "obj-17",
					"numinlets" : 1,
					"patching_rect" : [ 1.0, 0.0, 952.0, 64.0 ],
					"numoutlets" : 0,
					"data" : [ 846, "", "IBkSG0fBZn....PCIgDQRA..CfK....PHX.....LPrsr....DLmPIQEBHf.B7g.YHB..CTPRDEDU3wY6cGiUbCCEE.ExI8rQnd5IagzSSVWYIjsPnmZ1OPEmiiOXYYK4Qie4d6lQ1xeaW83OBc+CWd986....fStuM5B.....5AAbA...HBB3B...PDDvE...fHHfK....QP.W....hf.t....DAAbA...HBB3B...PDDvE...fHHfK....QP.W....hf.t....DAAbA...HBB3B...PDDvE...fHHfK....QP.W....hf.t....DAAbA...HBB3B...PD99nK....Ha+5m+3e97u+ye657slVudsd8m6rc+256ud+9uDcvE...fHHfK....QP.W....hf0fK...bSazqAzq4ZH8Ht9it9ulzAW....hf.t....DAAbA...HBVCt...voRq6Csa070r5n2Gd2pas8A3ijN3B...PDDvE...fHHfK....QvZvE...J5VaeTs08A1Qe8Oa6ityM5m+knCt....DAAbA...HBB3B...PDrFbA..fhN66Crsp00PZuWyq+u87eKzAW....hf.t....DAAbA...HB2+vkmeezEA....zJcvE...fHHfK....QP.W...NHOc4wE+9uZrkN9RyQoyokwqY9awQW+0Lds0YoO2yio1ZX52Wy8+dN+oeeM0ZOmqVXevE..fCvSWd7tWd8she+7i4kWeawyatoGyWcNktN0L9ZyeqN55esw2pZlidcLasdV69eOmeOqkqIAbA..XP5QnqdLO8X9m1YtZqmir9+7OVPxJc+M89esmuKM9dd90y4ZODvE..fAoktcczcJaqy+VqkqQm9l1UwylZd9r18WscUcow2yyudNW6g.t...b.V5maboNqs0Pek5Z5ZcvqlN7smtxtEWq5ukZe56wRg2Z8XV5mq9dq+0d20x726ZsmrO3B...PD7eQY....hf.t....DAAbA...HBB3B...PDDvE...fHHfK....QP.W....hf.t....DAAbA...HBB3B...PDDvE...fHHfK....QP.W....hvGLNxpUd8D4Mn.....jTQNQjqBAlf" ]
				}

			}
, 			{
				"box" : 				{
					"maxclass" : "panel",
					"id" : "obj-9",
					"numinlets" : 1,
					"patching_rect" : [ 0.0, 0.0, 960.0, 65.0 ],
					"bgcolor" : [ 0.0, 0.0, 0.0, 1.0 ],
					"rounded" : 0,
					"numoutlets" : 0
				}

			}
 ],
		"lines" : [ 			{
				"patchline" : 				{
					"source" : [ "obj-3", 0 ],
					"destination" : [ "obj-32", 0 ],
					"hidden" : 1,
					"color" : [ 1.0, 1.0, 1.0, 1.0 ],
					"midpoints" : [ 837.5, 716.0, 623.5, 716.0 ]
				}

			}
, 			{
				"patchline" : 				{
					"source" : [ "obj-55", 0 ],
					"destination" : [ "obj-1", 0 ],
					"hidden" : 1,
					"color" : [ 1.0, 1.0, 1.0, 1.0 ],
					"midpoints" : [  ]
				}

			}
, 			{
				"patchline" : 				{
					"source" : [ "obj-25", 0 ],
					"destination" : [ "obj-6", 0 ],
					"hidden" : 0,
					"midpoints" : [ 320.458527, 292.810608, 552.239624, 292.810608 ]
				}

			}
, 			{
				"patchline" : 				{
					"source" : [ "obj-15", 0 ],
					"destination" : [ "obj-6", 0 ],
					"hidden" : 0,
					"midpoints" : [ 373.587555, 292.810608, 552.239624, 292.810608 ]
				}

			}
, 			{
				"patchline" : 				{
					"source" : [ "obj-10", 0 ],
					"destination" : [ "obj-6", 0 ],
					"hidden" : 0,
					"midpoints" : [ 487.435486, 292.810608, 552.239624, 292.810608 ]
				}

			}
, 			{
				"patchline" : 				{
					"source" : [ "obj-4", 0 ],
					"destination" : [ "obj-6", 0 ],
					"hidden" : 0,
					"midpoints" : [ 575.624451, 307.311768, 552.239624, 307.311768 ]
				}

			}
, 			{
				"patchline" : 				{
					"source" : [ "obj-6", 0 ],
					"destination" : [ "obj-13", 0 ],
					"hidden" : 1,
					"midpoints" : [  ]
				}

			}
, 			{
				"patchline" : 				{
					"source" : [ "obj-6", 0 ],
					"destination" : [ "obj-11", 0 ],
					"hidden" : 1,
					"midpoints" : [  ]
				}

			}
, 			{
				"patchline" : 				{
					"source" : [ "obj-6", 0 ],
					"destination" : [ "obj-23", 0 ],
					"hidden" : 1,
					"midpoints" : [  ]
				}

			}
, 			{
				"patchline" : 				{
					"source" : [ "obj-6", 0 ],
					"destination" : [ "obj-21", 0 ],
					"hidden" : 1,
					"midpoints" : [  ]
				}

			}
, 			{
				"patchline" : 				{
					"source" : [ "obj-6", 0 ],
					"destination" : [ "obj-19", 0 ],
					"hidden" : 1,
					"midpoints" : [  ]
				}

			}
, 			{
				"patchline" : 				{
					"source" : [ "obj-6", 0 ],
					"destination" : [ "obj-16", 0 ],
					"hidden" : 1,
					"midpoints" : [  ]
				}

			}
, 			{
				"patchline" : 				{
					"source" : [ "obj-5", 0 ],
					"destination" : [ "obj-26", 0 ],
					"hidden" : 0,
					"midpoints" : [  ]
				}

			}
, 			{
				"patchline" : 				{
					"source" : [ "obj-7", 0 ],
					"destination" : [ "obj-26", 0 ],
					"hidden" : 0,
					"midpoints" : [  ]
				}

			}
, 			{
				"patchline" : 				{
					"source" : [ "obj-25", 0 ],
					"destination" : [ "obj-26", 0 ],
					"hidden" : 0,
					"midpoints" : [  ]
				}

			}
, 			{
				"patchline" : 				{
					"source" : [ "obj-15", 0 ],
					"destination" : [ "obj-26", 0 ],
					"hidden" : 0,
					"midpoints" : [  ]
				}

			}
, 			{
				"patchline" : 				{
					"source" : [ "obj-10", 0 ],
					"destination" : [ "obj-26", 0 ],
					"hidden" : 0,
					"midpoints" : [  ]
				}

			}
, 			{
				"patchline" : 				{
					"source" : [ "obj-4", 0 ],
					"destination" : [ "obj-26", 0 ],
					"hidden" : 0,
					"midpoints" : [ 575.624451, 307.0, 408.0, 307.0, 408.0, 316.0, 320.458527, 316.0 ]
				}

			}
, 			{
				"patchline" : 				{
					"source" : [ "obj-33", 0 ],
					"destination" : [ "obj-7", 0 ],
					"hidden" : 0,
					"midpoints" : [  ]
				}

			}
, 			{
				"patchline" : 				{
					"source" : [ "obj-26", 0 ],
					"destination" : [ "obj-16", 1 ],
					"hidden" : 0,
					"color" : [ 0.847059, 0.847059, 0.847059, 1.0 ],
					"midpoints" : [  ]
				}

			}
, 			{
				"patchline" : 				{
					"source" : [ "obj-26", 1 ],
					"destination" : [ "obj-19", 1 ],
					"hidden" : 0,
					"color" : [ 0.847059, 0.847059, 0.847059, 1.0 ],
					"midpoints" : [  ]
				}

			}
, 			{
				"patchline" : 				{
					"source" : [ "obj-26", 2 ],
					"destination" : [ "obj-21", 1 ],
					"hidden" : 0,
					"color" : [ 0.847059, 0.847059, 0.847059, 1.0 ],
					"midpoints" : [  ]
				}

			}
, 			{
				"patchline" : 				{
					"source" : [ "obj-26", 3 ],
					"destination" : [ "obj-23", 1 ],
					"hidden" : 0,
					"color" : [ 0.847059, 0.847059, 0.847059, 1.0 ],
					"midpoints" : [  ]
				}

			}
, 			{
				"patchline" : 				{
					"source" : [ "obj-26", 4 ],
					"destination" : [ "obj-11", 1 ],
					"hidden" : 0,
					"color" : [ 0.847059, 0.847059, 0.847059, 1.0 ],
					"midpoints" : [  ]
				}

			}
, 			{
				"patchline" : 				{
					"source" : [ "obj-26", 5 ],
					"destination" : [ "obj-13", 1 ],
					"hidden" : 0,
					"color" : [ 0.847059, 0.847059, 0.847059, 1.0 ],
					"midpoints" : [  ]
				}

			}
, 			{
				"patchline" : 				{
					"source" : [ "obj-28", 0 ],
					"destination" : [ "obj-6", 0 ],
					"hidden" : 0,
					"midpoints" : [ 587.5, 345.0, 600.0, 345.0, 600.0, 321.0, 552.239624, 321.0 ]
				}

			}
 ]
	}

}
